<svg width="173" height="30" viewBox="0 0 173 30" fill="none" xmlns="http://www.w3.org/2000/svg">
<path d="M50.5825 2.44086C54.8128 2.44086 57.5004 4.70974 57.6119 8.36433H53.9541C53.8667 6.62153 52.5812 5.59746 50.5243 5.59746C48.2684 5.59746 46.8081 6.64974 46.8081 8.33612C46.8081 9.77356 47.6086 10.5768 49.3502 10.9666L52.6394 11.6571C56.2099 12.4041 57.9563 14.1749 57.9563 17.1908C57.9563 20.9534 54.9243 23.3914 50.3253 23.3914C45.7263 23.3914 42.9515 21.0943 42.8641 17.4679H46.522C46.5511 19.1823 47.9773 20.2064 50.3205 20.2064C52.6637 20.2064 54.2936 19.1825 54.2936 17.4961C54.2936 16.1385 53.5805 15.3352 51.8632 14.9782L48.5498 14.2596C45.0036 13.5127 43.1504 11.5491 43.1504 8.44883C43.1504 4.90695 46.1824 2.44556 50.5825 2.44556V2.44086Z" fill="#11131A"/>
<path d="M59.924 16.1956C59.924 11.9068 62.8105 8.94283 66.9534 8.94283C71.0965 8.94283 73.8713 11.6814 73.8713 15.9467V16.9706L63.2375 16.9988C63.4946 19.4086 64.8093 20.6252 67.1234 20.6252C69.0396 20.6252 70.296 19.9065 70.6939 18.6054H73.9248C73.3232 21.5928 70.7521 23.3921 67.0651 23.3921C62.8639 23.3921 59.9192 20.4327 59.9192 16.1956H59.924ZM63.3248 14.8381H70.4124C70.4124 12.9544 69.0686 11.7096 66.9826 11.7096C64.8965 11.7096 63.6693 12.7899 63.3248 14.8381Z" fill="#11131A"/>
<path d="M82.4485 8.94753C84.5928 8.94753 86.4509 9.85876 87.3095 11.4371L87.5375 9.36089H90.7393V29.3671H87.2804V21.203C86.3926 22.5887 84.5346 23.3874 82.4485 23.3874C78.2473 23.3874 75.846 20.2871 75.846 16.0265C75.846 11.7659 78.4753 8.94283 82.4485 8.94283V8.94753ZM83.249 20.348C85.6795 20.348 87.2512 18.6617 87.2512 16.1956C87.2512 13.7294 85.6795 12.0149 83.249 12.0149C80.8185 12.0149 79.3341 13.7576 79.3341 16.1956C79.3341 18.6336 80.8185 20.348 83.249 20.348Z" fill="#11131A"/>
<path d="M107.433 9.35819V23.0277H104.202L103.945 21.2004C103.086 22.5016 101.257 23.3847 99.3702 23.3847C96.1102 23.3847 94.1988 21.252 94.1988 17.9028V9.35349H97.6869V16.7144C97.6869 19.3167 98.7444 20.369 100.69 20.369C102.892 20.369 103.95 19.1242 103.95 16.5218V9.35349H107.438L107.433 9.35819Z" fill="#11131A"/>
<path d="M109.92 16.1956C109.92 11.9068 112.807 8.94283 116.949 8.94283C121.092 8.94283 123.868 11.6814 123.868 15.9467V16.9706L113.233 16.9988C113.49 19.4086 114.805 20.6252 117.119 20.6252C119.035 20.6252 120.292 19.9065 120.69 18.6054H123.921C123.319 21.5928 120.748 23.3921 117.061 23.3921C112.86 23.3921 109.915 20.4327 109.915 16.1956H109.92ZM113.321 14.8381H120.408C120.408 12.9544 119.065 11.7096 116.979 11.7096C114.893 11.7096 113.665 12.7899 113.321 14.8381Z" fill="#11131A"/>
<path d="M126.675 23.03V9.36057H129.906L130.192 11.1314C131.08 9.74573 132.793 8.94721 134.709 8.94721C138.254 8.94721 140.083 11.0797 140.083 14.6216V23.0347H136.596V15.4248C136.596 13.1279 135.422 12.0193 133.622 12.0193C131.477 12.0193 130.162 13.4566 130.162 15.6739V23.0347H126.675V23.03Z" fill="#11131A"/>
<path d="M149.741 8.94753C153.598 8.94753 156.227 11.0238 156.6 14.3166H153.112C152.71 12.7664 151.541 11.9632 149.882 11.9632C147.65 11.9632 146.165 13.5979 146.165 16.1674C146.165 18.7369 147.539 20.348 149.764 20.348C151.507 20.348 152.738 19.5166 153.108 18.0229H156.625C156.198 21.2077 153.451 23.3921 149.764 23.3921C145.477 23.3921 142.678 20.5125 142.678 16.1674C142.678 11.8223 145.564 8.94283 149.736 8.94283L149.741 8.94753Z" fill="#11131A"/>
<path d="M158.399 16.1956C158.399 11.9068 161.286 8.94283 165.429 8.94283C169.571 8.94283 172.347 11.6814 172.347 15.9467V16.9706L161.713 16.9988C161.97 19.4086 163.285 20.6252 165.598 20.6252C167.516 20.6252 168.772 19.9065 169.169 18.6054H172.4C171.798 21.5928 169.228 23.3921 165.541 23.3921C161.339 23.3921 158.394 20.4327 158.394 16.1956H158.399ZM161.8 14.8381H168.888C168.888 12.9544 167.544 11.7096 165.459 11.7096C163.372 11.7096 162.145 12.7899 161.8 14.8381Z" fill="#11131A"/>
<path d="M15.6355 5.67714C16.3924 4.55446 17.2559 3.61502 18.3134 2.84458C20.1181 1.52455 22.1411 0.76835 24.4017 0.674444C25.6049 0.622712 26.8128 0.665041 28.0451 0.665041V4.54976C27.5842 4.54976 27.1233 4.54976 26.6575 4.54976C25.5806 4.55916 24.4939 4.49334 23.4315 4.7471C21.2291 5.27318 19.6621 6.55089 18.6337 8.505C19.8465 9.84371 21.3163 10.7598 23.1598 10.9523C24.3193 11.0744 25.4933 11.0228 26.6624 11.0416C27.1136 11.051 27.5647 11.0416 28.0451 11.0416V14.9734C27.7055 14.9734 27.3853 14.9734 27.0602 14.9734C25.7892 14.9545 24.5182 14.9828 23.252 14.9075C20.9235 14.7666 18.8714 13.9164 17.0715 12.493C16.9648 12.4085 16.8629 12.3287 16.7223 12.2253C15.9411 13.7333 15.1796 15.2082 14.3986 16.7207C15.5288 17.7871 16.6204 18.9004 17.8089 19.9104C19.1382 21.0377 20.7633 21.4604 22.5195 21.4558C24.2077 21.4511 25.8912 21.4558 27.5794 21.4558C27.7297 21.4558 28.0499 21.4558 28.0499 21.4558V25.364C28.0499 25.364 23.902 25.3875 21.9616 25.3546C19.1236 25.3076 16.6737 24.3023 14.6071 22.4376C13.8746 21.7751 13.2003 21.0517 12.5259 20.3847C11.8953 21.0846 11.3519 21.7751 10.7212 22.3717C8.936 24.0534 6.7869 25.0634 4.29821 25.2747C2.935 25.3921 0.0339574 25.3593 0.0339574 25.3593V21.4558C0.0339574 21.4558 0.339586 21.4558 0.48512 21.4558C1.52814 21.4417 2.58086 21.4933 3.61418 21.4041C6.22412 21.1879 8.12103 19.8963 9.34832 17.6743C9.39691 17.5851 9.35315 17.3877 9.28041 17.3126C7.80561 15.7954 6.01554 14.964 3.83733 14.9781C2.7167 14.9828 1.59606 14.9781 0.475415 14.9781C0.339586 14.9781 0.0339574 14.9781 0.0339574 14.9781V11.051C0.0339574 11.051 3.38131 11.0181 4.99682 11.1214C7.32538 11.267 9.36295 12.1643 11.1434 13.6157C11.2015 13.6627 11.2597 13.7097 11.3423 13.7707C11.3956 13.6956 13.0013 10.6516 13.6805 9.31293C13.6805 9.31293 13.666 9.29882 13.5253 9.1579C12.5696 8.22316 11.6284 7.27431 10.6339 6.37706C9.25128 5.12285 7.57275 4.55916 5.68563 4.55446C3.94898 4.54976 2.21216 4.55446 0.475415 4.55446C0.339586 4.55446 0.164941 4.55446 0 4.55446V0.63683C0 0.63683 4.40009 0.613308 6.44732 0.683718C9.18337 0.777753 11.5362 1.8111 13.5253 3.61972C14.2384 4.26791 14.9031 4.96783 15.6355 5.68655V5.67714Z" fill="#11131A"/>
</svg>
