<svg width="248" height="49" viewBox="0 0 248 49" fill="none" xmlns="http://www.w3.org/2000/svg">
<path d="M213.57 47.7286V4.09227H230.786C234.081 4.09227 236.894 4.68176 239.223 5.86074C241.567 7.02551 243.35 8.68034 244.571 10.8252C245.807 12.9559 246.425 15.463 246.425 18.3465C246.425 21.2443 245.8 23.7372 244.55 25.8252C243.3 27.8991 241.489 29.49 239.117 30.598C236.759 31.7059 233.904 32.2599 230.551 32.2599H219.024V24.8451H229.06C230.821 24.8451 232.284 24.6036 233.449 24.1207C234.614 23.6377 235.48 22.9133 236.049 21.9474C236.631 20.9815 236.922 19.7812 236.922 18.3465C236.922 16.8977 236.631 15.6761 236.049 14.6818C235.48 13.6874 234.607 12.9346 233.428 12.4232C232.263 11.8977 230.793 11.6349 229.017 11.6349H222.796V47.7286H213.57ZM237.135 27.8707L247.98 47.7286H237.796L227.185 27.8707H237.135Z" fill="#0F1C2C"/>
<path d="M196.754 4.09227H205.979V32.4303C205.979 35.6122 205.219 38.3963 203.7 40.7826C202.194 43.169 200.085 45.0298 197.371 46.365C194.658 47.686 191.498 48.3465 187.89 48.3465C184.268 48.3465 181.1 47.686 178.387 46.365C175.674 45.0298 173.565 43.169 172.059 40.7826C170.553 38.3963 169.8 35.6122 169.8 32.4303V4.09227H179.026V31.642C179.026 33.3039 179.388 34.7812 180.113 36.0738C180.852 37.3664 181.888 38.382 183.224 39.1207C184.559 39.8593 186.114 40.2286 187.89 40.2286C189.68 40.2286 191.235 39.8593 192.556 39.1207C193.891 38.382 194.921 37.3664 195.646 36.0738C196.384 34.7812 196.754 33.3039 196.754 31.642V4.09227Z" fill="#0F1C2C"/>
<path d="M135.757 47.7286V4.09227H144.983V40.1221H163.691V47.7286H135.757Z" fill="#0F1C2C"/>
<path d="M98.3959 47.7286H88.5096L103.574 4.09227H115.463L130.505 47.7286H120.619L109.689 14.0639H109.348L98.3959 47.7286ZM97.778 30.5766H121.13V37.7784H97.778V30.5766Z" fill="#0F1C2C"/>
<path d="M59.6761 4.09227L70.223 37.2457H70.6278L81.196 4.09227H91.4233L76.3807 47.7286H64.4915L49.4276 4.09227H59.6761Z" fill="#0F1C2C"/>
<path d="M28.3636 0.728638L20.1818 20.7287L26.4 35.9288L22.9091 40.7286C19.2219 31.7286 13.0909 16.7286 13.0909 16.7286L0 48.7286H48L28.3636 0.728638Z" fill="#635AFF"/>
</svg>
